<svg width="30" height="30" viewBox="0 0 30 30" fill="none" xmlns="http://www.w3.org/2000/svg">
<g id="entypo:beamed-note">
<path id="Vector" d="M25.5 1.5L25.497 21C25.497 22.8645 23.5455 25.5 19.875 25.5C18.0105 25.5 16.5 24.5205 16.5 22.6875C16.5 20.304 18.6675 18.8625 21 18.8625C21.648 18.8625 22.131 18.951 22.5 19.047V8.046L12 9.9555V24H11.997C11.997 25.8645 10.0455 28.5 6.375 28.5C4.5105 28.5 3 27.5205 3 25.6875C3 23.304 5.1675 21.8625 7.5 21.8625C8.148 21.8625 8.631 21.951 9 22.047V4.5L25.5 1.5Z" fill="#FA087E"/>
</g>
</svg>
